# xmcd
#
# Track frame offsets:
#	150
#	19715
#	41730
#	55963
#	71258
#	88080
#	108798
#	125578
#	141155
#	158178
#	180865
#
# Disc length: 2730 seconds
#
# Revision: 0
# Processed by: cddbd v1.4PL0 Copyright (c) Steve Scherf et al.
# Submitted via: dBpowerAMP V4.0
#
DISCID=8b0aa80b
DTITLE=ANNA VISSI - LAMPO
DYEAR=1992
DGENRE=Ballad
TTITLE0=LAMPO
TTITLE1=AKOMA MIA
TTITLE2=OTI THES EGO
TTITLE3=EISAI OTI PIO AGAPHMENO EXO
TTITLE4=PIKRE MOU
TTITLE5=SE XREIAZOMAI
TTITLE6=MH
TTITLE7=JANAGYRNA
TTITLE8=OPOU KAI NA PAS
TTITLE9=GTAINE
TTITLE10=DE THELO NA JEREIS
EXTD=
EXTT0=
EXTT1=
EXTT2=
EXTT3=
EXTT4=
EXTT5=
EXTT6=
EXTT7=
EXTT8=
EXTT9=
EXTT10=
PLAYORDER=
